<svg width="240" height="241" viewBox="0 0 240 241" fill="none" xmlns="http://www.w3.org/2000/svg">
<path d="M218.464 31.0957C221.145 33.8648 240.269 52.0221 239.997 53.5556L171.746 120.927L237.36 188.92L184.851 240.64C181.943 242.112 175.556 232.99 173.524 230.957C154.996 212.484 136.45 193.906 117.686 175.609L53.7882 236.583L0.420531 184.232L62.9866 120.743L0 55.4046L53.9109 1.70405L117.984 66.2534L187.19 0.00400082C189.371 -0.381578 214.741 27.2223 218.473 31.0781L218.464 31.0957ZM57.7128 41.1295L54.3402 39.6397C50.398 44.9414 42.0495 50.2782 38.5191 55.3959C37.9847 56.167 37.2663 56.5789 38.081 57.5954L40.7617 60.1981C44.7126 54.9402 53.613 49.2003 57.012 44.1089C57.6077 43.2238 58.3524 42.181 57.7128 41.1295ZM62.8814 46.4575L60.9104 45.7126L42.9692 62.4151L46.7712 65.4121L56.0834 56.7454C56.4251 60.6012 48.6635 73.0186 54.9008 74.149L72.7192 57.1835L69.6707 54.1427L60.4811 62.8621C60.157 58.8135 65.7899 49.5421 62.8814 46.475V46.4575ZM75.0495 60.2945L64.87 70.2757L73.5953 79.0125C68.0325 87.171 65.9826 78.6094 60.7877 75.148L57.9056 77.3738C57.7392 78.3203 67.9449 88.6871 68.9699 88.9587C71.5366 89.6335 77.5287 81.5977 79.6837 79.7574L71.9221 71.0206L75.3649 66.7441L84.5632 75.0516L87.6117 72.0108L75.0495 60.2857V60.2945ZM82.741 97.2837C87.2613 93.796 90.967 89.502 95.0755 85.5761L98.7023 88.985L101.584 86.7592C101.76 85.7777 91.3611 74.6134 88.9608 75.0866L87.603 77.2774L91.0808 81.7554L77.1957 96.6089C79.1843 101.429 80.4546 99.0626 82.7498 97.2925L82.741 97.2837ZM104.011 90.0191L86.7795 106.958L89.3901 109.631C90.4151 110.446 90.8268 109.727 91.5977 109.193C92.9468 108.264 106.876 94.4006 107.384 93.4104C108.339 91.5526 105.816 89.5458 104.011 90.0191ZM109.968 95.1806L107.752 98.2301L111.221 103.348L97.2831 117.439L100.332 120.48L115.224 106.538L118.851 109.946L121.733 107.721L109.968 95.1893V95.1806ZM121.286 137.463C126.937 133.125 131.597 127.569 136.617 122.557L134.926 120.024C133.98 119.358 133.297 119.586 132.333 120.024C130.064 121.067 119.797 133.572 118.737 133.572C117.756 132.047 113.192 129.62 114.304 127.482C115.732 124.73 127.541 115.713 127.874 113.82L124.869 110.034L106.928 127.92L118.282 139.303C119.92 140.057 120.638 137.971 121.295 137.463H121.286ZM130.879 148.802C134.357 146.103 141.374 137.796 143.704 136.595C145.736 135.552 147.05 138.69 148.513 139.689L151.562 136.648L139.63 124.923L136.757 127.788L141.05 132.275L126.192 147.12L129.276 150.152C130.931 150.695 130.38 149.179 130.879 148.793V148.802ZM159.516 145.84L142.819 162.429V164.164L145.5 166.767L153.261 159.87C155.469 160.86 160.226 168.511 162.582 167.275L164.317 165.479C161.128 161.211 152.088 157.469 159.639 152.886L168.399 160.606C170.563 160.037 171.973 158.836 170.519 156.715C168.093 153.193 162.285 149.468 159.516 145.84ZM180.856 178.518C182.1 177.326 186.866 174.321 186.568 172.577L174.803 160.685L156.862 177.703L168.671 189.525C170.09 189.525 178.929 180.385 180.856 178.527V178.518ZM186.629 193.862L191.316 197.289L201.496 187.308L189.564 175.582L171.789 192.671L174.794 196.456L183.108 189.498C183.94 193.415 177.58 202.319 182.687 204.334C184.597 204.737 183.809 203.528 184.212 202.415C185.219 199.655 186.288 196.807 186.621 193.862H186.629Z" fill="#EFE943"/>
<path d="M188.994 182.753C193.865 183.639 196.852 188.323 191.316 191.331L185.814 186.472L188.994 182.753Z" fill="#EFE943"/>
<path d="M165.912 181.464C165.123 180.684 164.571 179.5 163.976 178.553L173.454 168.186C176.249 166.625 178.535 171.133 180.471 172.606L168.829 183.394C167.883 182.797 166.691 182.245 165.912 181.464Z" fill="#EFE943"/>
</svg>
