<svg width="329" height="120" viewBox="0 0 329 120" fill="none" xmlns="http://www.w3.org/2000/svg">
<path d="M178.082 0V20.9703H199.037V0H178.082ZM219.973 0H208.358L208.378 20.9703H219.993L219.973 0ZM238.603 0H226.988L227.008 20.9703H238.623L238.603 0ZM268.889 0H247.933V20.9703H268.889V0ZM23.2518 11.3739L0.919303 23.986C-0.846936 56.2603 -4.76857 101.097 41.8821 88.7443V72.1877C41.8821 72.1877 29.0494 74.6742 24.2097 68.4231L23.2817 45.4356H40.7146V30.2871L23.2518 30.3071V11.3639V11.3739ZM125.694 30.3071V88.5446H147.816V53.5042C153.953 47.8323 161.398 48.1917 168.772 50.6582V28.4198C166.377 26.0731 149.084 33.1131 150.022 39.6838L148.186 30.2971H125.694V30.3071ZM324.78 47.5626L324.55 33.6024C309.263 21.17 266.683 30.6366 279.606 55.8509C285.523 67.3945 309.023 66.7754 307.736 73.1164C306.399 79.747 283.418 73.8055 279.366 70.3004L279.536 87.1665C296.879 96.6531 341.644 89.7429 325.578 62.8709C320.15 53.7838 297.039 52.6254 298.286 46.6539C299.713 39.8236 320.419 46.584 324.77 47.5626H324.78ZM72.1477 30.2971H51.1923V77.1507C51.1923 78.6686 57.8481 86.4076 59.754 87.6858C69.7927 94.3963 81.9867 92.3192 90.2591 83.8612L92.2448 89.7229L114.068 89.5931V30.3071H90.788V70.0807C85.3296 72.8768 72.1576 73.376 72.1576 65.3474V30.3071L72.1477 30.2971ZM178.082 30.2971V88.5346H199.027L199.965 64.0892L216.151 87.5859L238.972 88.5246L219.823 57.6383C229.792 52.206 236.967 42.4199 239.002 31.2557L216.221 30.377C216.291 41.8008 209.715 49.2402 199.027 52.8351V30.2771H178.072L178.082 30.2971ZM247.933 30.2971V88.5446H268.889V30.2971H247.933ZM199.037 99.0297H178.082V120H199.037V99.0297ZM219.973 99.0297H208.358L208.378 120H219.993L219.973 99.0297ZM238.603 99.0297H226.988L227.008 120H238.623L238.603 99.0297ZM268.889 99.0297H247.933V120H268.889V99.0297Z" fill="#68E9D5"/>
</svg>
