<svg width="243" height="240" viewBox="0 0 243 240" fill="none" xmlns="http://www.w3.org/2000/svg">
<path d="M114.063 65.2296C62.6398 68.3029 13.6751 104.246 4.59059 156.502C3.97585 160.024 2.99031 165.37 3.00007 168.814C3.00983 172.258 5.38098 174.044 8.49372 174.346C23.4622 175.8 40.753 173.195 55.9752 174.346C62.1129 173.917 61.3713 165.721 62.6593 160.912C77.6376 105.095 165.877 104.109 182.436 158.521C183.422 161.741 184.447 170.746 185.774 172.434C186.808 173.751 188.428 174.346 190.087 174.346C205.153 173.214 222.258 175.79 237.08 174.346C242.876 173.78 242.359 169.741 242.105 164.96C241.149 146.589 231.46 125.017 220.238 110.656C195.239 78.6643 154.334 62.8295 114.063 65.2393V65.2296Z" fill="#E75022"/>
<path d="M242 189.247V235.151C240.663 238.42 239.102 239.688 235.492 240L6.02686 239.854C2.66042 239.366 0.962557 237.766 0.386847 234.381C1.09917 220.39 -0.706033 205.238 0.328295 191.393C0.621029 187.52 2.06518 184.535 6.36837 184.388H235.979C239.151 184.369 241.053 186.486 242 189.237V189.247ZM183.941 206.838C180.028 195.286 157.351 196.555 155.682 209.072C154.658 216.79 157.488 222.487 165.294 224.263C175.374 226.556 185.678 222.439 184.917 210.741H167.841V214.643H176.564C174.144 221.619 163.079 219.863 162.776 212.097C162.532 205.989 166.992 203.638 172.554 204.653C174.359 204.984 175.676 206.838 175.881 206.838H183.941ZM40.5207 200.008H33.5732L44.1604 223.668C45.1459 224.966 52.396 224.663 52.9814 223.961L63.2759 200.008H56.0844L48.8929 217.258L40.511 200.008H40.5207ZM66.3594 200.008V224.4H73.1899V200.008H66.3594ZM84.8992 200.008H78.0688V224.4H98.8041C99.9165 223.697 99.8482 219.785 99.0578 219.239C98.7065 218.946 98.4431 219.521 98.3162 219.521H85.6311L84.8992 218.809V200.008ZM109.294 200.008H102.463V224.4H122.955V219.521H109.294V200.008ZM125.082 224.4H132.273L133.659 220.37L145.378 220.165L147.847 224.4H154.794L143.553 199.93L135.386 200.438L125.092 224.39L125.082 224.4ZM209.799 200.008H188.332V224.4H209.799V219.521H195.163V213.668H203.808C204.647 213.102 204.501 212.136 204.501 211.228C204.501 210.653 204.53 210.087 204.403 209.521L203.808 208.789H195.163V204.887H209.799V200.008Z" fill="#E75022"/>
<path d="M143.768 214.643C142.051 211.97 141.514 208.389 139.465 206.019L136.108 214.643H143.778H143.768Z" fill="#E75022"/>
<path d="M236.78 0C239.678 0.887841 240.868 1.94155 242 4.75142V49.8752C241.063 52.5778 239.19 54.6656 236.077 54.6461L9.12013 54.5193C6.32939 54.012 4.7779 51.3875 4.49492 48.6947C5.36336 35.1722 3.34351 20.235 4.47541 6.87833C4.81694 2.93671 5.8415 1.12201 9.71535 0.00976602H236.77L236.78 0ZM78.0298 14.9957C69.1014 15.8348 64.7494 20.9277 65.6764 29.9329C67.1108 43.8457 94.1789 44.5677 94.4522 28.0304C94.6181 18.0788 87.1045 14.1469 78.0298 14.9957ZM159.059 39.5431V26.2645C161.274 27.5133 163.274 33.816 164.913 34.8014C165.938 35.4161 167.87 34.8892 169.07 35.0844L175.637 26.2645V40.0016H182.468V14.6347L175.559 14.7421L166.777 27.0938C164.796 25.0157 160.22 16.2251 158.366 15.0835C157.361 14.4689 152.765 14.264 152.209 15.0835L152.072 38.7625C152.56 40.2846 157.614 39.2504 159.039 39.5528L159.059 39.5431ZM41.477 15.6104H34.5295L45.3021 39.5724L53.6938 39.8065L64.2322 15.6104H57.0407L49.615 33.3379L41.4673 15.6104H41.477ZM105.391 35.1234V16.2836C103.683 14.7908 100.717 15.8836 98.5602 15.5616V39.9919H119.052V35.1136H105.391V35.1234ZM129.785 14.6347H122.955V32.8111C122.691 32.9867 124.126 35.5136 124.399 35.8941C129.229 42.6066 144.539 41.5822 146.998 33.1623C147.769 30.5183 148.101 19.2105 147.603 16.5178C147.505 15.9714 146.813 15.6006 146.813 15.6006H140.509V31.8452C140.411 32.2257 138.997 34.3136 138.382 34.6063C136.811 35.338 131.668 35.299 130.488 33.8648C130.302 33.6502 129.385 31.5037 129.775 31.3671V14.625L129.785 14.6347ZM208.823 15.6104H188.078L187.356 16.3324V39.2894L188.078 40.0114H208.823V35.1331H194.187V29.2792H202.832C203.671 28.7134 203.525 27.7475 203.525 26.8401C203.525 26.2645 203.554 25.6986 203.427 25.1327L202.832 24.401H194.187V20.4984H208.823V15.6202V15.6104Z" fill="#E75022"/>
<path d="M77.5225 20.2351C81.855 19.3473 86.6363 20.7424 87.2413 25.6207C88.1195 32.6942 84.2358 36.4699 77.1322 34.7723C70.7018 33.2308 70.8384 21.601 77.5127 20.2351H77.5225Z" fill="#E75022"/>
</svg>
